<svg xmlns="http://www.w3.org/2000/svg" width="512" height="512" viewBox="0 0 512 512">
<g>
<path d="M 24.50 439.07 C15.52,436.89 7.25,430.14 2.98,421.50 L 0.50 416.50 L 0.50 95.50 L 2.98 90.50 C6.13,84.13 12.13,78.13 18.50,74.98 L 23.50 72.50 L 254.00 72.24 C463.08,72.00 484.97,72.13 489.60,73.58 C497.30,75.99 503.75,81.43 507.92,89.00 L 511.50 95.50 L 511.50 416.50 L 508.08 422.80 C504.29,429.80 501.17,432.81 493.61,436.81 L 488.50 439.50 L 258.00 439.65 C131.23,439.74 26.15,439.48 24.50,439.07 ZM 38.56 297.75 L 32.12 312.00 L 92.72 312.00 L 96.46 302.96 L 100.21 293.93 L 108.80 294.21 L 117.40 294.50 L 121.06 303.00 L 124.72 311.50 L 157.86 311.76 C188.93,312.01 191.01,311.92 191.08,310.26 C191.22,307.39 192.10,302.57 192.58,302.09 C192.82,301.85 194.01,303.97 195.21,306.82 L 197.40 312.00 L 231.75 312.00 L 234.13 306.52 C235.43,303.50 236.84,301.03 237.25,301.02 C237.66,301.01 238.00,303.48 238.00,306.50 L 238.00 312.00 L 376.81 312.00 L 393.01 294.50 L 401.26 303.29 L 409.50 312.08 L 444.62 311.79 L 479.74 311.50 L 454.87 284.16 C441.19,269.12 430.01,256.52 430.02,256.16 C430.03,255.80 441.22,243.12 454.89,228.00 L 479.73 200.50 L 445.15 200.24 L 410.57 199.97 L 402.03 208.47 L 393.50 216.96 L 378.58 200.00 L 227.50 200.04 L 221.59 213.56 C218.34,221.00 215.36,227.28 214.98,227.52 C214.59,227.75 211.41,221.66 207.92,213.97 L 201.56 200.00 L 141.00 200.00 L 140.94 206.25 L 140.88 212.50 L 134.56 199.97 L 108.54 200.23 L 82.53 200.50 L 63.76 242.00 C53.44,264.83 42.10,289.91 38.56,297.75 ZM 84.45 286.98 L 80.72 296.00 L 59.03 296.00 L 61.58 290.25 C62.98,287.09 70.93,269.08 79.24,250.22 L 94.35 215.95 L 109.30 216.22 L 124.24 216.50 L 140.31 252.86 C153.77,283.33 156.52,288.84 157.24,286.89 C157.71,285.61 157.96,269.13 157.80,250.26 L 157.50 215.95 L 173.80 216.23 L 190.10 216.50 L 202.39 242.33 C209.15,256.53 215.09,268.17 215.59,268.20 C216.09,268.23 221.68,256.49 228.00,242.12 L 239.50 216.00 L 272.00 216.00 L 272.00 296.00 L 252.03 296.00 L 251.50 234.50 L 237.54 265.28 L 223.58 296.07 L 214.62 295.78 L 205.65 295.50 L 192.50 266.64 C185.27,250.77 178.85,237.04 178.24,236.14 C177.40,234.91 177.10,242.27 177.06,265.27 L 177.00 296.04 L 156.86 295.77 L 136.72 295.50 L 129.40 278.50 L 108.79 278.23 L 88.19 277.96 ZM 380.50 283.00 L 368.50 295.87 L 329.25 295.94 L 290.00 296.00 L 290.00 216.00 L 369.51 216.00 L 381.50 229.12 L 393.50 242.23 L 418.52 216.00 L 430.26 216.00 C436.72,216.00 442.00,216.24 442.00,216.53 C442.00,216.82 433.89,225.91 423.97,236.72 L 405.95 256.39 L 411.28 261.94 C423.62,274.79 442.00,294.78 442.00,295.37 C442.00,295.72 436.46,296.00 429.69,296.00 L 417.38 296.00 L 405.58 283.00 C399.08,275.85 393.49,270.03 393.14,270.06 C392.79,270.10 387.10,275.92 380.50,283.00 ZM 309.67 279.33 C310.03,279.70 321.02,280.00 334.08,280.00 L 357.83 280.00 L 368.66 268.39 C374.62,262.01 379.50,256.35 379.50,255.81 C379.50,255.27 375.03,249.92 369.56,243.91 L 359.61 233.00 L 309.00 233.00 L 309.00 247.00 L 353.08 247.00 L 352.50 263.50 L 309.00 264.04 L 309.00 271.35 C309.00,275.38 309.30,278.97 309.67,279.33 ZM 96.02 260.75 C96.00,261.69 99.26,262.00 109.00,262.00 C116.15,262.00 122.00,261.64 122.00,261.19 C122.00,260.75 119.48,254.56 116.40,247.44 C113.32,240.32 110.36,233.38 109.82,232.00 C108.93,229.75 108.21,230.98 102.44,244.50 C98.92,252.75 96.03,260.06 96.02,260.75 Z" fill="rgba(38,166,209,1)"/>
<path d="M 38.56 297.75 C42.10,289.91 53.44,264.83 63.76,242.00 L 82.53 200.50 L 108.54 200.23 L 134.56 199.97 L 137.72 206.23 L 140.88 212.50 L 140.94 206.25 L 141.00 200.00 L 171.28 200.00 L 201.56 200.00 L 207.92 213.97 C211.41,221.66 214.59,227.75 214.98,227.52 C215.36,227.28 218.34,221.00 221.59,213.56 L 227.50 200.04 L 303.04 200.02 L 378.58 200.00 L 386.04 208.48 L 393.50 216.96 L 402.03 208.47 L 410.57 199.97 L 445.15 200.24 L 479.73 200.50 L 454.89 228.00 C441.22,243.12 430.03,255.80 430.02,256.16 C430.01,256.52 441.19,269.12 454.87,284.16 L 479.74 311.50 L 444.62 311.79 L 409.50 312.08 L 401.26 303.29 L 393.01 294.50 L 384.91 303.25 L 376.81 312.00 L 307.41 312.00 L 238.00 312.00 L 238.00 306.50 C238.00,303.48 237.66,301.01 237.25,301.02 C236.84,301.03 235.43,303.50 234.13,306.52 L 231.75 312.00 L 214.57 312.00 L 197.40 312.00 L 195.21 306.82 C194.01,303.97 192.82,301.85 192.58,302.09 C192.10,302.57 191.22,307.39 191.08,310.26 C191.01,311.92 188.93,312.01 157.86,311.76 L 124.72 311.50 L 121.06 303.00 L 117.40 294.50 L 108.80 294.21 L 100.21 293.93 L 96.46 302.96 L 92.72 312.00 L 62.42 312.00 L 32.12 312.00 L 38.56 297.75 ZM 84.45 286.98 L 88.19 277.96 L 108.79 278.23 L 129.40 278.50 L 133.06 287.00 L 136.72 295.50 L 156.86 295.77 L 177.00 296.04 L 177.06 265.27 C177.10,242.27 177.40,234.91 178.24,236.14 C178.85,237.04 185.27,250.77 192.50,266.64 L 205.65 295.50 L 214.62 295.78 L 223.58 296.07 L 237.54 265.28 L 251.50 234.50 L 251.76 265.25 L 252.03 296.00 L 262.01 296.00 L 272.00 296.00 L 272.00 256.00 L 272.00 216.00 L 255.75 216.00 L 239.50 216.00 L 228.00 242.12 C221.68,256.49 216.09,268.23 215.59,268.20 C215.09,268.17 209.15,256.53 202.39,242.33 L 190.10 216.50 L 173.80 216.23 L 157.50 215.95 L 157.80 250.26 C157.96,269.13 157.71,285.61 157.24,286.89 C156.52,288.84 153.77,283.33 140.31,252.86 L 124.24 216.50 L 109.30 216.22 L 94.35 215.95 L 79.24 250.22 C70.93,269.08 62.98,287.09 61.58,290.25 L 59.03 296.00 L 69.87 296.00 L 80.72 296.00 L 84.45 286.98 ZM 380.50 283.00 C387.10,275.92 392.79,270.10 393.14,270.06 C393.49,270.03 399.08,275.85 405.58,283.00 L 417.38 296.00 L 429.69 296.00 C436.46,296.00 442.00,295.72 442.00,295.37 C442.00,294.78 423.62,274.79 411.28,261.94 L 405.95 256.39 L 423.97 236.72 C433.89,225.91 442.00,216.82 442.00,216.53 C442.00,216.24 436.72,216.00 430.26,216.00 L 418.52 216.00 L 406.01 229.12 L 393.50 242.23 L 381.50 229.12 L 369.51 216.00 L 329.75 216.00 L 290.00 216.00 L 290.00 256.00 L 290.00 296.00 L 329.25 295.94 L 368.50 295.87 L 380.50 283.00 ZM 96.02 260.75 C96.03,260.06 98.92,252.75 102.44,244.50 C108.21,230.98 108.93,229.75 109.82,232.00 C110.36,233.38 113.32,240.32 116.40,247.44 C119.48,254.56 122.00,260.75 122.00,261.19 C122.00,261.64 116.15,262.00 109.00,262.00 C99.26,262.00 96.00,261.69 96.02,260.75 ZM 309.67 279.33 C309.30,278.97 309.00,275.38 309.00,271.35 L 309.00 264.04 L 330.75 263.77 L 352.50 263.50 L 352.79 255.25 L 353.08 247.00 L 331.04 247.00 L 309.00 247.00 L 309.00 240.00 L 309.00 233.00 L 334.31 233.00 L 359.61 233.00 L 369.56 243.91 C375.03,249.92 379.50,255.27 379.50,255.81 C379.50,256.35 374.62,262.01 368.66,268.39 L 357.83 280.00 L 334.08 280.00 C321.02,280.00 310.03,279.70 309.67,279.33 Z" fill="rgba(253,254,254,1)"/>
</g>
</svg>