<svg xmlns="http://www.w3.org/2000/svg" width="512" height="512" viewBox="0 0 512 512">
<g>
<path d="M 235.50 503.38 C172.42,496.82 120.26,471.98 77.99,428.37 C41.34,390.57 18.54,344.29 10.31,291.00 C7.83,274.88 7.83,237.12 10.31,221.00 C18.54,167.71 41.34,121.43 77.99,83.63 C116.79,43.61 164.82,18.99 221.00,10.31 C237.11,7.83 274.87,7.83 291.00,10.31 C344.56,18.56 389.79,40.77 427.82,77.48 C457.18,105.83 477.72,138.04 490.92,176.42 C506.69,222.29 508.17,275.53 494.99,322.39 C471.97,404.22 408.69,468.99 328.00,493.32 C303.68,500.65 287.77,503.04 260.50,503.47 C248.95,503.65 237.70,503.61 235.50,503.38 ZM 156.92 364.04 C159.44,364.50 169.15,364.73 178.50,364.56 C193.19,364.28 196.79,363.88 205.00,361.60 C220.15,357.39 238.07,348.02 248.53,338.84 L 252.00 335.79 L 255.47 338.84 C265.98,348.07 283.66,357.29 299.04,361.55 C306.57,363.64 311.56,364.28 323.50,364.71 C346.90,365.54 361.74,362.36 381.00,352.38 C411.64,336.51 433.20,307.72 440.61,272.80 C443.02,261.41 443.01,239.51 440.57,228.00 C431.37,184.55 399.92,150.99 357.50,139.38 C348.38,136.88 345.92,136.64 329.50,136.59 C314.09,136.54 310.24,136.85 302.72,138.75 C286.49,142.86 271.57,150.05 258.49,160.08 L 252.01 165.05 L 244.97 159.68 C205.75,129.80 153.37,127.89 112.50,154.86 C104.32,160.25 91.53,172.17 85.52,180.00 C69.94,200.29 61.70,224.91 61.77,251.00 C61.85,281.25 72.32,307.69 92.71,329.13 C110.26,347.59 132.34,359.59 156.92,364.04 ZM 87.58 261.91 L 84.43 280.50 L 78.71 280.80 C75.57,280.96 72.99,280.74 72.98,280.30 C72.97,279.86 75.07,266.79 77.64,251.25 L 82.32 223.00 L 100.00 223.00 L 100.12 232.75 C100.19,238.11 100.53,245.65 100.88,249.50 L 101.51 256.50 L 107.09 240.00 L 112.66 223.50 L 122.38 223.21 L 132.10 222.93 L 131.50 226.21 C131.17,228.02 128.99,240.98 126.67,255.00 L 122.43 280.50 L 116.13 280.80 L 109.82 281.10 L 110.37 278.30 C111.84,270.81 116.13,241.80 115.81,241.48 C115.61,241.28 112.29,249.98 108.42,260.81 L 101.40 280.50 L 93.31 281.10 L 92.66 267.39 C92.30,259.85 91.96,250.72 91.92,247.09 C91.82,238.25 91.27,240.12 87.58,261.91 ZM 407.63 278.92 C403.25,281.63 396.58,281.65 392.18,278.97 C386.94,275.77 384.67,269.48 385.19,259.59 C385.55,252.78 386.15,250.49 389.01,245.13 C395.59,232.79 406.12,229.78 415.14,237.67 C416.62,238.97 416.88,238.52 417.89,232.72 C418.50,229.21 419.00,225.59 419.00,224.67 C419.00,223.30 420.06,223.00 425.00,223.00 C428.47,223.00 431.00,223.44 431.00,224.03 C431.00,224.92 424.12,268.29 422.47,277.75 C421.92,280.95 421.83,281.00 416.45,281.00 C411.60,281.00 411.00,280.77 411.00,278.92 L 411.00 276.84 ZM 148.06 279.11 C143.94,282.16 137.30,282.61 133.31,280.11 C129.01,277.40 128.00,275.17 128.00,268.32 C128.01,257.68 134.22,252.15 147.19,251.22 C154.31,250.71 155.87,249.49 153.96,245.93 C153.12,244.36 151.85,244.00 147.21,244.02 C144.07,244.04 139.77,244.45 137.65,244.94 L 133.80 245.84 L 134.50 241.17 C134.88,238.60 135.37,236.22 135.58,235.87 C136.33,234.66 144.95,233.00 150.54,233.00 C158.50,233.00 162.79,235.28 165.24,240.80 C167.35,245.58 167.33,245.82 162.88,274.25 L 161.82 281.00 L 156.34 281.00 C151.32,281.00 150.92,280.83 151.50,279.00 C152.31,276.46 151.62,276.48 148.06,279.11 ZM 344.75 278.96 C341.17,281.04 335.61,282.11 332.50,281.31 C327.16,279.94 323.29,272.30 324.55,265.60 C326.18,256.90 332.84,252.03 344.25,251.22 C350.89,250.74 351.00,250.68 351.00,247.88 C351.00,244.25 348.45,243.53 338.27,244.30 L 330.76 244.86 L 331.37 241.18 C331.70,239.16 331.98,236.97 331.99,236.32 C332.01,234.60 342.42,232.72 349.19,233.21 C356.16,233.71 359.89,236.12 361.90,241.41 C363.15,244.68 363.06,246.92 361.09,261.30 C359.88,270.21 358.65,278.29 358.37,279.25 C357.98,280.61 356.77,281.00 352.93,281.00 C348.69,281.00 348.00,280.72 348.00,279.03 C348.00,277.09 347.96,277.09 344.75,278.96 ZM 250.33 281.06 C238.14,283.89 227.11,280.00 222.95,271.39 C221.09,267.55 220.82,265.62 221.19,258.67 C221.69,248.99 225.09,241.59 231.31,236.61 C234.54,234.02 236.12,233.51 241.81,233.23 C249.98,232.82 253.85,234.83 257.08,241.15 C258.87,244.67 259.16,246.59 258.78,252.53 C258.53,256.46 258.00,260.19 257.60,260.84 C257.12,261.62 252.95,262.00 244.94,262.00 C233.67,262.00 233.00,262.11 233.00,264.00 C233.00,266.55 236.19,269.76 239.56,270.60 C242.17,271.26 249.43,270.64 253.86,269.38 C256.20,268.72 256.22,268.77 255.50,274.10 C255.10,277.07 254.64,279.65 254.47,279.84 C254.30,280.02 252.44,280.57 250.33,281.06 ZM 317.69 279.64 C316.13,281.14 306.35,282.04 302.34,281.06 C296.97,279.75 292.60,276.58 290.21,272.27 C283.57,260.28 285.82,241.11 295.10,230.54 C301.62,223.11 311.74,220.40 322.65,223.14 L 327.19 224.29 L 326.50 229.89 C326.11,232.98 325.61,235.81 325.38,236.19 C325.15,236.57 323.41,236.23 321.51,235.44 C312.85,231.82 305.34,234.82 301.38,243.49 C296.88,253.30 298.30,264.53 304.54,268.62 C307.08,270.28 314.19,270.20 318.40,268.46 C320.18,267.72 320.26,268.02 319.59,273.09 C319.20,276.06 318.35,279.01 317.69,279.64 ZM 189.02 279.49 C185.53,281.30 175.45,282.16 169.51,281.17 C165.11,280.43 164.39,279.07 165.45,273.44 L 166.08 270.08 L 172.43 270.68 C181.35,271.51 184.21,270.65 183.81,267.28 C183.58,265.27 182.18,263.85 178.05,261.43 C169.35,256.33 167.06,249.87 170.94,241.32 C173.70,235.25 177.43,233.60 188.48,233.55 C198.47,233.49 198.83,233.78 197.55,240.60 L 196.91 244.00 L 190.58 244.00 C183.74,244.00 181.36,245.41 182.44,248.81 C182.77,249.86 184.86,251.54 187.09,252.54 C193.54,255.45 196.00,259.12 196.00,265.83 C195.99,272.50 193.64,277.10 189.02,279.49 ZM 215.95 280.41 C215.47,280.92 212.60,281.53 209.58,281.79 C204.51,282.21 203.85,282.01 201.04,279.20 C197.13,275.28 197.14,274.20 201.50,248.31 C203.42,236.86 205.00,227.39 205.00,227.25 C205.00,227.11 207.75,227.00 211.11,227.00 L 217.22 227.00 L 216.57 230.50 C215.93,233.89 216.01,234.00 219.02,234.00 L 222.12 234.00 L 221.49 238.75 C220.56,245.65 220.35,246.00 217.13,246.00 C214.30,246.00 214.17,246.22 213.03,252.75 C210.57,266.82 210.55,268.69 212.80,269.89 C213.93,270.50 215.62,270.70 216.57,270.34 C218.09,269.75 218.20,270.21 217.56,274.59 C217.16,277.29 216.44,279.91 215.95,280.41 ZM 273.69 267.22 L 271.39 280.50 L 265.06 280.80 L 258.73 281.10 L 259.28 278.30 C259.58,276.76 261.31,266.16 263.11,254.75 L 266.39 234.00 L 272.06 234.00 C277.69,234.00 277.72,234.02 277.23,236.75 L 276.74 239.50 L 279.64 236.78 C282.68,233.93 286.28,232.79 286.81,234.50 C286.98,235.05 286.41,238.04 285.54,241.15 C284.27,245.67 283.46,246.92 281.50,247.41 C277.86,248.32 276.24,252.45 273.69,267.22 ZM 374.00 273.75 L 372.82 281.00 L 360.78 281.00 L 361.34 277.75 C361.65,275.96 363.35,265.39 365.13,254.25 L 368.36 234.00 L 379.23 234.00 L 378.78 237.03 L 378.34 240.07 L 381.47 237.03 C385.33,233.29 389.60,232.82 388.53,236.25 C388.15,237.49 387.35,240.39 386.76,242.70 C386.00,245.67 385.10,246.99 383.69,247.20 C379.30,247.86 377.31,253.30 374.00,273.75 ZM 399.40 267.89 C402.03,270.80 405.62,270.53 408.98,267.17 C415.32,260.83 415.50,246.92 409.26,245.35 C402.47,243.65 397.54,249.65 397.52,259.64 C397.50,264.29 397.96,266.30 399.40,267.89 ZM 337.57 270.43 C341.04,273.90 346.17,271.10 348.46,264.50 C349.22,262.30 349.47,260.12 349.02,259.65 C347.72,258.30 339.99,260.01 337.89,262.11 C335.59,264.41 335.44,268.30 337.57,270.43 ZM 141.00 270.00 C142.10,271.10 143.71,272.00 144.58,272.00 C146.58,272.00 152.00,266.64 152.00,264.66 C152.00,263.84 152.27,262.45 152.61,261.58 C153.11,260.28 152.39,260.00 148.56,260.00 C144.96,260.00 143.36,260.55 141.45,262.45 C138.48,265.43 138.36,267.36 141.00,270.00 ZM 234.74 251.40 C235.78,252.45 246.85,252.05 247.54,250.94 C247.90,250.36 247.64,248.56 246.98,246.94 C245.94,244.43 245.21,244.00 242.03,244.00 C239.73,244.00 237.74,244.67 236.81,245.75 C234.93,247.93 233.95,250.62 234.74,251.40 Z" fill="rgba(77,139,180,1)"/>
<path d="M 156.92 364.04 C132.34,359.59 110.26,347.59 92.71,329.13 C72.32,307.69 61.85,281.25 61.77,251.00 C61.70,224.91 69.94,200.29 85.52,180.00 C91.53,172.17 104.32,160.25 112.50,154.86 C153.37,127.89 205.75,129.80 244.97,159.68 L 252.01 165.05 L 253.84 163.64 C253.05,164.42 252.52,165.08 252.33,165.57 C252.09,166.21 249.55,169.16 246.70,172.12 L 241.50 177.50 L 252.25 177.78 L 262.99 178.07 L 266.99 183.37 C269.20,186.29 271.00,189.20 271.00,189.84 C271.00,190.68 265.56,191.00 251.25,191.00 L 231.50 191.00 L 228.75 195.90 C227.24,198.59 226.00,201.29 226.00,201.90 C226.00,202.67 233.82,203.00 252.38,203.00 L 278.75 203.00 L 280.88 207.94 C282.04,210.65 283.00,213.35 283.00,213.94 C283.00,214.67 273.14,215.00 251.62,215.00 L 220.24 215.00 L 219.12 219.44 C218.45,222.09 217.68,223.81 218.21,224.94 C219.32,227.33 226.25,227.00 252.39,227.00 L 286.78 227.00 L 287.37 229.33 C287.69,230.61 287.76,232.63 287.53,233.83 C287.30,235.02 287.54,236.00 288.06,236.00 C288.58,236.00 289.00,236.79 289.00,237.75 C289.01,238.86 289.77,238.23 291.11,236.00 C292.10,234.34 293.17,232.83 294.32,231.46 C285.70,242.19 283.76,260.62 290.21,272.27 C291.95,275.40 294.72,277.93 298.17,279.58 C294.78,278.16 292.22,275.88 290.45,272.73 L 288.34 268.96 L 286.48 277.10 C285.45,281.58 284.00,285.86 283.24,286.62 C282.12,287.73 275.97,288.00 251.43,288.00 C234.69,288.00 221.00,288.19 221.00,288.42 C221.00,289.79 225.33,298.59 226.31,299.21 C226.97,299.63 238.86,299.98 252.75,299.98 C266.64,299.99 277.99,300.34 277.98,300.75 C277.96,301.16 276.72,303.75 275.22,306.50 L 272.49 311.50 L 252.75 311.77 C241.89,311.92 233.00,312.33 233.00,312.68 C233.00,313.03 234.80,315.71 237.01,318.63 L 241.02 323.93 L 262.93 324.50 L 257.85 330.29 C255.27,333.22 253.78,334.84 253.85,336.37 C253.88,336.91 254.10,337.44 254.54,338.02 L 252.00 335.79 L 248.53 338.84 C238.07,348.02 220.15,357.39 205.00,361.60 C196.79,363.88 193.19,364.28 178.50,364.56 C169.15,364.73 159.44,364.50 156.92,364.04 ZM 87.58 261.91 C91.27,240.12 91.82,238.25 91.92,247.09 C91.96,250.72 92.30,259.85 92.66,267.39 L 93.31 281.10 L 101.40 280.50 L 108.42 260.81 C112.29,249.98 115.61,241.28 115.81,241.48 C116.13,241.80 111.84,270.81 110.37,278.30 L 109.82 281.10 L 116.13 280.80 L 122.43 280.50 L 126.67 255.00 C128.99,240.98 131.17,228.02 131.50,226.21 L 132.10 222.93 L 122.38 223.21 L 112.66 223.50 L 107.09 240.00 L 101.51 256.50 L 100.88 249.50 C100.53,245.65 100.19,238.11 100.12,232.75 L 100.00 223.00 L 82.32 223.00 L 77.64 251.25 C75.07,266.79 72.97,279.86 72.98,280.30 C72.99,280.74 75.57,280.96 78.71,280.80 L 84.43 280.50 ZM 148.06 279.11 C151.62,276.48 152.31,276.46 151.50,279.00 C150.92,280.83 151.32,281.00 156.34,281.00 L 161.82 281.00 L 162.88 274.25 C167.33,245.82 167.35,245.58 165.24,240.80 C162.79,235.28 158.50,233.00 150.54,233.00 C144.95,233.00 136.33,234.66 135.58,235.87 C135.37,236.22 134.88,238.60 134.50,241.17 L 133.80 245.84 L 137.65 244.94 C139.77,244.45 144.07,244.04 147.21,244.02 C151.85,244.00 153.12,244.36 153.96,245.93 C155.87,249.49 154.31,250.71 147.19,251.22 C134.22,252.15 128.01,257.68 128.00,268.32 C128.00,275.17 129.01,277.40 133.31,280.11 C137.30,282.61 143.94,282.16 148.06,279.11 ZM 250.33 281.06 C252.44,280.57 254.30,280.02 254.47,279.84 C254.64,279.65 255.10,277.07 255.50,274.10 C256.22,268.77 256.20,268.72 253.86,269.38 C249.43,270.64 242.17,271.26 239.56,270.60 C236.19,269.76 233.00,266.55 233.00,264.00 C233.00,262.11 233.67,262.00 244.94,262.00 C252.95,262.00 257.12,261.62 257.60,260.84 C258.00,260.19 258.53,256.46 258.78,252.53 C259.16,246.59 258.87,244.67 257.08,241.15 C253.85,234.83 249.98,232.82 241.81,233.23 C236.12,233.51 234.54,234.02 231.31,236.61 C225.09,241.59 221.69,248.99 221.19,258.67 C220.82,265.62 221.09,267.55 222.95,271.39 C227.11,280.00 238.14,283.89 250.33,281.06 ZM 189.02 279.49 C193.64,277.10 195.99,272.50 196.00,265.83 C196.00,259.12 193.54,255.45 187.09,252.54 C184.86,251.54 182.77,249.86 182.44,248.81 C181.36,245.41 183.74,244.00 190.58,244.00 L 196.91 244.00 L 197.55 240.60 C198.83,233.78 198.47,233.49 188.48,233.55 C177.43,233.60 173.70,235.25 170.94,241.32 C167.06,249.87 169.35,256.33 178.05,261.43 C182.18,263.85 183.58,265.27 183.81,267.28 C184.21,270.65 181.35,271.51 172.43,270.68 L 166.08 270.08 L 165.45 273.44 C164.39,279.07 165.11,280.43 169.51,281.17 C175.45,282.16 185.53,281.30 189.02,279.49 ZM 215.95 280.41 C216.44,279.91 217.16,277.29 217.56,274.59 C218.20,270.21 218.09,269.75 216.57,270.34 C215.62,270.70 213.93,270.50 212.80,269.89 C210.55,268.69 210.57,266.82 213.03,252.75 C214.17,246.22 214.30,246.00 217.13,246.00 C220.35,246.00 220.56,245.65 221.49,238.75 L 222.12 234.00 L 219.02 234.00 C216.01,234.00 215.93,233.89 216.57,230.50 L 217.22 227.00 L 211.11 227.00 C207.75,227.00 205.00,227.11 205.00,227.25 C205.00,227.39 203.42,236.86 201.50,248.31 C197.14,274.20 197.13,275.28 201.04,279.20 C203.85,282.01 204.51,282.21 209.58,281.79 C212.60,281.53 215.47,280.92 215.95,280.41 ZM 273.69 267.22 C276.24,252.45 277.86,248.32 281.50,247.41 C283.46,246.92 284.27,245.67 285.54,241.15 C286.41,238.04 286.98,235.05 286.81,234.50 C286.28,232.79 282.68,233.93 279.64,236.78 L 276.74 239.50 L 277.23 236.75 C277.72,234.02 277.69,234.00 272.06,234.00 L 266.39 234.00 L 263.11 254.75 C261.31,266.16 259.58,276.76 259.28,278.30 L 258.73 281.10 L 265.06 280.80 L 271.39 280.50 ZM 141.00 270.00 C138.36,267.36 138.48,265.43 141.45,262.45 C143.36,260.55 144.96,260.00 148.56,260.00 C152.39,260.00 153.11,260.28 152.61,261.58 C152.27,262.45 152.00,263.84 152.00,264.66 C152.00,266.64 146.58,272.00 144.58,272.00 C143.71,272.00 142.10,271.10 141.00,270.00 ZM 234.74 251.40 C233.95,250.62 234.93,247.93 236.81,245.75 C237.74,244.67 239.73,244.00 242.03,244.00 C245.21,244.00 245.94,244.43 246.98,246.94 C247.64,248.56 247.90,250.36 247.54,250.94 C246.85,252.05 235.78,252.45 234.74,251.40 ZM 381.00 352.38 C371.36,357.38 362.83,360.67 353.78,362.61 C362.73,360.48 372.20,356.94 381.00,352.38 ZM 304.82 138.24 C311.09,136.80 315.59,136.55 329.50,136.59 C318.84,136.56 311.59,136.93 304.82,138.24 ZM 264.26 155.92 C270.63,151.61 277.39,147.93 284.49,144.90 C278.30,147.57 270.59,151.86 264.26,155.92 ZM 303.95 362.78 C302.37,362.43 300.77,362.03 299.04,361.55 C292.95,359.86 286.50,357.40 280.28,354.46 C287.98,358.05 296.15,360.93 303.95,362.78 ZM 302.43 224.85 C308.21,221.84 315.06,221.23 322.65,223.14 C315.26,221.28 308.22,221.93 302.43,224.85 ZM 317.69 279.64 C317.74,279.60 317.78,279.55 317.82,279.49 C317.73,279.64 317.64,279.77 317.55,279.86 C316.86,280.56 314.72,281.04 311.45,281.23 C314.38,280.92 316.95,280.35 317.69,279.64 ZM 267.13 347.34 C264.74,345.85 262.46,344.31 260.35,342.76 C261.32,343.43 262.41,344.18 263.63,345.02 C264.76,345.81 265.93,346.58 267.13,347.34 ZM 335.65 364.74 C334.08,364.80 332.47,364.83 330.82,364.83 C332.46,364.82 334.09,364.79 335.65,364.74 Z" fill="rgba(202,32,38,1)"/>
<path d="M 309.92 363.99 C294.54,361.39 276.76,354.10 263.63,345.02 C251.72,336.79 251.85,337.12 257.85,330.29 L 262.93 324.50 L 251.97 324.22 L 241.02 323.93 L 237.01 318.63 C234.80,315.71 233.00,313.03 233.00,312.68 C233.00,312.33 241.89,311.92 252.75,311.77 L 272.49 311.50 L 275.22 306.50 C276.72,303.75 277.96,301.16 277.98,300.75 C277.99,300.34 266.64,299.99 252.75,299.98 C238.86,299.98 226.97,299.63 226.31,299.21 C225.33,298.59 221.00,289.79 221.00,288.42 C221.00,288.19 234.69,288.00 251.43,288.00 C275.97,288.00 282.12,287.73 283.24,286.62 C284.00,285.86 285.45,281.58 286.48,277.10 L 288.34 268.96 L 290.45 272.73 C293.75,278.62 299.83,281.46 308.86,281.32 C313.60,281.25 316.69,280.73 317.55,279.86 C318.29,279.11 319.20,276.06 319.59,273.09 C320.26,268.02 320.18,267.72 318.40,268.46 C314.19,270.20 307.08,270.28 304.54,268.62 C298.30,264.53 296.88,253.30 301.38,243.49 C305.34,234.82 312.85,231.82 321.51,235.44 C323.41,236.23 325.15,236.57 325.38,236.19 C325.61,235.81 326.11,232.98 326.50,229.89 L 327.19 224.29 L 322.65 223.14 C309.22,219.76 298.13,224.28 291.11,236.00 C289.77,238.23 289.01,238.86 289.00,237.75 C289.00,236.79 288.58,236.00 288.06,236.00 C287.54,236.00 287.30,235.02 287.53,233.83 C287.76,232.63 287.69,230.61 287.37,229.33 L 286.78 227.00 L 252.39 227.00 C213.94,227.00 217.04,227.70 219.12,219.44 L 220.24 215.00 L 251.62 215.00 C273.14,215.00 283.00,214.67 283.00,213.94 C283.00,213.35 282.04,210.65 280.88,207.94 L 278.75 203.00 L 252.38 203.00 C233.82,203.00 226.00,202.67 226.00,201.90 C226.00,201.29 227.24,198.59 228.75,195.90 L 231.50 191.00 L 251.25 191.00 C265.56,191.00 271.00,190.68 271.00,189.84 C271.00,189.20 269.20,186.29 266.99,183.37 L 262.99 178.07 L 252.25 177.78 L 241.50 177.50 L 246.70 172.12 C249.55,169.16 252.09,166.21 252.33,165.57 C253.73,161.94 273.11,149.60 285.44,144.50 C301.24,137.95 309.19,136.53 329.50,136.59 C345.92,136.64 348.38,136.88 357.50,139.38 C399.92,150.99 431.37,184.55 440.57,228.00 C443.01,239.51 443.02,261.41 440.61,272.80 C433.20,307.72 411.64,336.51 381.00,352.38 C369.94,358.11 357.83,362.23 347.00,363.95 C339.60,365.13 316.78,365.15 309.92,363.99 ZM 344.75 278.96 C347.96,277.09 348.00,277.09 348.00,279.03 C348.00,280.72 348.69,281.00 352.93,281.00 C356.77,281.00 357.98,280.61 358.37,279.25 C358.65,278.29 359.88,270.21 361.09,261.30 C363.06,246.92 363.15,244.68 361.90,241.41 C359.89,236.12 356.16,233.71 349.19,233.21 C342.42,232.72 332.01,234.60 331.99,236.32 C331.98,236.97 331.70,239.16 331.37,241.18 L 330.76 244.86 L 338.27 244.30 C348.45,243.53 351.00,244.25 351.00,247.88 C351.00,250.68 350.89,250.74 344.25,251.22 C332.84,252.03 326.18,256.90 324.55,265.60 C323.29,272.30 327.16,279.94 332.50,281.31 C335.61,282.11 341.17,281.04 344.75,278.96 ZM 374.00 273.75 C377.31,253.30 379.30,247.86 383.69,247.20 C385.10,246.99 386.00,245.67 386.76,242.70 C387.35,240.39 388.15,237.49 388.53,236.25 C389.60,232.82 385.33,233.29 381.47,237.03 L 378.34 240.07 L 378.78 237.03 L 379.23 234.00 L 373.79 234.00 L 368.36 234.00 L 365.13 254.25 C363.35,265.39 361.65,275.96 361.34,277.75 L 360.78 281.00 L 366.80 281.00 L 372.82 281.00 L 374.00 273.75 ZM 407.63 278.92 L 411.00 276.84 L 411.00 278.92 C411.00,280.77 411.60,281.00 416.45,281.00 C421.83,281.00 421.92,280.95 422.47,277.75 C424.12,268.29 431.00,224.92 431.00,224.03 C431.00,223.44 428.47,223.00 425.00,223.00 C420.06,223.00 419.00,223.30 419.00,224.67 C419.00,225.59 418.50,229.21 417.89,232.72 C416.88,238.52 416.62,238.97 415.14,237.67 C406.12,229.78 395.59,232.79 389.01,245.13 C386.15,250.49 385.55,252.78 385.19,259.59 C384.67,269.48 386.94,275.77 392.18,278.97 C396.58,281.65 403.25,281.63 407.63,278.92 ZM 337.57 270.43 C335.44,268.30 335.59,264.41 337.89,262.11 C339.99,260.01 347.72,258.30 349.02,259.65 C349.47,260.12 349.22,262.30 348.46,264.50 C346.17,271.10 341.04,273.90 337.57,270.43 ZM 399.40 267.89 C397.96,266.30 397.50,264.29 397.52,259.64 C397.54,249.65 402.47,243.65 409.26,245.35 C415.50,246.92 415.32,260.83 408.98,267.17 C405.62,270.53 402.03,270.80 399.40,267.89 Z" fill="rgba(246,152,31,1)"/>
</g>
</svg>