<svg xmlns="http://www.w3.org/2000/svg" width="512" height="512" viewBox="0 0 512 512">
<g>
<path d="M 178.47 333.27 C178.57,332.90 178.69,332.40 178.83,331.77 C178.59,333.54 178.91,334.12 179.89,334.79 C180.96,335.53 187.86,335.84 200.46,335.70 L 219.42 335.50 L 198.59 335.77 L 177.77 336.04 ZM 415.21 313.40 L 411.42 324.00 L 407.29 335.50 L 401.10 335.58 C403.54,335.24 405.19,334.65 406.46,333.60 C408.76,331.69 409.82,328.29 412.02,322.21 L 415.21 313.40 ZM 191.62 272.66 C191.93,271.13 192.23,269.70 192.47,268.50 C193.25,264.65 197.96,242.48 202.94,219.24 C207.92,195.99 212.00,176.76 212.00,176.49 C212.00,176.22 221.23,176.00 232.50,176.00 C221.23,176.00 212.00,176.23 212.00,176.50 C212.00,177.02 194.43,259.90 191.62,272.66 ZM 335.31 207.01 C342.49,207.19 350.33,208.53 357.82,211.11 C361.76,212.46 363.71,212.69 365.10,211.95 C365.84,211.55 366.49,211.11 366.80,210.81 C366.44,212.21 366.18,213.08 366.07,213.21 C365.74,213.60 362.56,212.87 358.99,211.58 C351.08,208.73 342.82,207.23 335.31,207.01 ZM 362.53 177.16 C345.34,173.21 336.55,172.53 324.00,173.96 C318.23,174.62 312.81,175.67 307.77,177.09 C322.49,172.76 339.44,171.93 355.50,175.54 C358.31,176.17 360.62,176.70 362.53,177.16 ZM 367.57 207.65 C368.13,204.98 369.04,200.71 370.07,195.99 C370.50,194.00 370.88,192.26 371.20,190.73 C370.85,192.57 370.41,194.70 369.89,197.17 C369.06,201.12 368.24,204.81 367.57,207.65 ZM 372.31 183.61 C372.39,181.54 371.97,180.41 370.92,179.65 C371.42,179.92 371.74,180.19 371.99,180.49 C372.34,180.91 372.46,181.85 372.31,183.61 ZM 265.04 225.72 C265.04,231.28 266.10,236.69 268.21,241.22 C266.03,236.54 264.99,231.22 265.04,225.72 ZM 184.49 305.73 C184.81,304.21 185.14,302.63 185.49,301.00 C186.45,296.46 187.65,290.88 188.57,286.67 C187.28,292.66 185.81,299.53 184.49,305.73 ZM 277.58 194.49 C275.39,196.86 273.46,199.42 271.80,202.14 C272.20,201.47 272.62,200.81 273.05,200.16 C274.37,198.18 275.89,196.29 277.58,194.49 ZM 180.91 322.42 C181.58,319.34 182.37,315.66 183.28,311.40 C182.93,313.05 182.60,314.60 182.30,316.00 C181.89,317.95 181.39,320.24 180.91,322.42 ZM 371.20 318.04 C374.73,309.66 378.32,301.30 378.72,300.65 C378.32,301.29 374.73,309.65 371.20,318.04 ZM 364.00 335.61 C364.00,335.61 364.00,335.60 364.00,335.60 C364.03,335.65 364.64,335.71 365.70,335.76 C364.61,335.72 364.00,335.67 364.00,335.61 Z" fill="rgba(25,42,224,1)"/>
<path d="M 281.12 337.97 C265.33,336.35 247.97,331.70 248.04,329.10 C248.12,326.16 254.48,299.53 255.53,297.77 C256.48,296.17 257.14,296.27 264.43,299.10 C274.47,303.00 284.98,305.00 295.41,305.00 C306.33,305.00 313.40,302.83 318.22,298.01 C321.48,294.75 322.00,293.61 322.00,289.69 C322.00,286.22 321.37,284.40 319.30,281.94 C316.21,278.28 305.75,271.31 298.54,268.12 C285.25,262.24 272.87,251.26 268.21,241.22 C264.51,233.26 264.01,222.61 266.88,213.15 C273.48,191.43 293.96,177.38 324.00,173.96 C337.41,172.44 346.52,173.31 366.18,178.01 C373.51,179.77 373.56,179.97 370.07,195.99 C368.38,203.75 367.00,210.28 367.00,210.51 C367.00,210.74 366.15,211.39 365.10,211.95 C363.71,212.69 361.76,212.46 357.82,211.11 C338.46,204.45 316.84,206.03 310.09,214.61 C304.78,221.36 309.21,228.35 324.00,236.57 C348.73,250.32 355.94,255.96 361.28,265.78 C371.59,284.72 363.31,312.31 343.32,325.57 C328.32,335.53 304.23,340.33 281.12,337.97 ZM 79.63 320.25 C77.52,311.59 75.40,303.38 74.93,302.00 C74.47,300.62 70.00,283.52 65.02,264.00 C48.12,197.83 48.64,199.32 40.92,194.45 C36.34,191.56 23.08,186.80 10.00,183.34 C4.78,181.96 0.41,180.73 0.29,180.62 C0.17,180.51 0.34,179.42 0.66,178.21 L 1.23 176.00 L 37.92 176.00 L 74.61 176.00 L 79.82 178.60 C88.61,182.98 88.74,183.37 98.50,235.50 C103.24,260.80 107.36,282.17 107.66,283.00 C108.10,284.20 108.38,284.10 109.05,282.50 C109.88,280.55 125.85,239.99 142.52,197.50 L 150.76 176.50 L 172.50 176.23 C192.92,175.98 194.19,176.07 193.59,177.73 C193.24,178.70 178.22,214.71 160.23,257.74 L 127.50 335.98 L 105.49 335.99 L 83.48 336.00 L 79.63 320.25 ZM 179.89 334.79 C178.48,333.82 178.43,333.04 179.50,328.59 C180.17,325.79 181.43,320.12 182.30,316.00 C184.93,303.55 190.01,279.92 191.54,273.00 C194.09,261.48 212.00,177.02 212.00,176.50 C212.00,176.23 221.23,176.00 232.50,176.00 C251.37,176.00 253.00,176.14 252.95,177.75 C252.93,178.71 245.37,214.60 236.16,257.50 L 219.42 335.50 L 200.46 335.70 C187.86,335.84 180.96,335.53 179.89,334.79 ZM 364.00 335.59 C364.00,334.96 377.91,301.95 378.72,300.65 C379.12,300.02 379.51,299.05 379.60,298.50 C379.80,297.24 394.86,261.20 396.32,258.50 C396.92,257.40 397.48,256.05 397.58,255.50 C397.84,253.97 412.34,219.57 412.96,219.00 C413.26,218.73 413.65,217.82 413.83,217.00 C414.02,216.18 416.94,208.76 420.33,200.52 C427.13,184.02 430.87,178.96 437.69,177.07 C439.78,176.49 449.84,176.01 460.03,176.01 L 478.56 176.00 L 494.85 254.25 C503.81,297.29 511.36,333.29 511.64,334.25 C512.10,335.87 510.84,336.00 494.82,335.99 C485.29,335.98 476.58,335.73 475.46,335.42 C473.75,334.96 473.04,333.03 471.07,323.42 L 468.72 311.97 L 442.13 312.23 L 415.54 312.50 L 412.02 322.21 C406.81,336.58 408.00,336.00 384.04,336.00 C373.02,336.00 364.00,335.82 364.00,335.59 ZM 457.33 257.75 C454.88,246.06 452.10,232.70 451.15,228.05 L 449.43 219.59 L 447.76 224.05 C441.20,241.63 428.00,278.05 428.00,278.58 C428.00,278.81 435.60,279.00 444.89,279.00 L 461.77 279.00 L 457.33 257.75 Z" fill="rgba(26,41,222,1)"/>
</g>
</svg>